<!DOCTYPE html>
<html lang="en">
<head>
<meta charset="UTF-8">
<meta http-equiv="X-UA-Compatible" content="IE=edge">
<meta name="viewport" content="width=device-width, initial-scale=1.0">
<title>FYC</title>
<link rel="shortcut icon" href="FYC Rewrite.ico" /><body>
    <style>
body {
  background-image: url('With\ Credit\ Protogen.png');
  background-repeat: no-repeat;
  background-attachment: fixed;
  background-size: cover;
}
</style> 
<body style="background-color:rgb(64, 64, 64);">
</head>
<body>

<center><h1>FYC://TorrentTemplate</h1></center>
<center><h1>=-=-=-=-=-=-=-=-=-=-=-=-=-=-=-=-=-=-=</h1></center>
<center><p><img src=""></p></center>

<!--Home-->
<style> 
.button {
background-color: rgb(89, 95, 89);
border: 2px solid rgb(0, 0, 0);
color: rgb(0, 0, 0);
padding: 40px 68px;
text-align: center;
text-decoration: none;
display: inline-block;
font-size: 40px;
margin: 4px 2px;
cursor: pointer;
border-radius: 12px;
transition: transform 0.2s ease-out;
outline: 2px solid white;
}
.button:hover {
transform: scale(1.05);
}
.button:hover, .button:focus {
outline-offset: 0px;
}
</style>
</head>
<body>
<a href="index.html" class="button"><center>Home</center></a>
<!--End-->


<center><h1>Download/Stream: </h1></center>

<!--Magnet-->
<style> 
.button {
background-color: rgb(89, 95, 89);
border: none;
color: rgb(0, 0, 0);
padding: 40px 68px;
text-align: center;
text-decoration: none;
display: inline-block;
font-size: 40px;
margin: 4px 2px;
cursor: pointer;
border-radius: 12px;
}
</style>
</head>
<body>
<a href="magnet:?xt=urn:btih:78BB51A2A4281ED2F4BDA7F98285201451A06349&dn=South+Park+%281997%29+Season+20+S20+%281080p+BluRay+x265+HEVC+10bit+AAC+5.1+Q22+Joy%29+%5BUTR%5D&tr=udp%3A%2F%2Ftracker.opentrackr.org%3A1337%2Fannounce&tr=udp%3A%2F%2Ftracker.coppersurfer.tk%3A6969%2Fannounce&tr=udp%3A%2F%2F9.rarbg.com%3A2710%2Fannounce&tr=udp%3A%2F%2F9.rarbg.to%3A2710%2Fannounce&tr=udp%3A%2F%2Ftracker.torrent.eu.org%3A451%2Fannounce&tr=udp%3A%2F%2Fexodus.desync.com%3A6969%2Fannounce&tr=udp%3A%2F%2Ftracker.tiny-vps.com%3A6969%2Fannounce&tr=udp%3A%2F%2Fopen.demonii.si%3A1337%2Fannounce&tr=udp%3A%2F%2Ftracker.internetwarriors.net%3A1337%2Fannounce&tr=udp%3A%2F%2Ftracker.opentrackr.org%3A1337%2Fannounce&tr=http%3A%2F%2Ftracker.openbittorrent.com%3A80%2Fannounce&tr=udp%3A%2F%2Fopentracker.i2p.rocks%3A6969%2Fannounce&tr=udp%3A%2F%2Ftracker.internetwarriors.net%3A1337%2Fannounce&tr=udp%3A%2F%2Ftracker.leechers-paradise.org%3A6969%2Fannounce&tr=udp%3A%2F%2Fcoppersurfer.tk%3A6969%2Fannounce&tr=udp%3A%2F%2Ftracker.zer0day.to%3A1337%2Fannounce" class="button"><center>Magnet</center></a></center> 
<!--End--> 

<!--Torrent-->
<style> 
.button {
background-color: rgb(89, 95, 89);
border: none;
color: rgb(0, 0, 0);
padding: 40px 68px;
text-align: center;
text-decoration: none;
display: inline-block;
font-size: 40px;
margin: 4px 2px;
cursor: pointer;
border-radius: 12px;
}
</style>
</head>
<body>
<a href="http://itorrents.org/torrent/78BB51A2A4281ED2F4BDA7F98285201451A06349.torrent" class="button"><center>Torrent</center></a></center> 
<!--End--> 

<!--Play now (Stream)-->
<style> 
.button {
background-color: rgb(89, 95, 89);
border: none;
color: rgb(0, 0, 0);
padding: 40px 68px;
text-align: center;
text-decoration: none;
display: inline-block;
font-size: 40px;
margin: 4px 2px;
cursor: pointer;
border-radius: 12px;
}
</style>
</head>
<body>
<a href="404Steam.html" class="button"><center>Play now (Stream)</center></a></center> 
<!--End--> 

<center><h1>Descption:</h1></center>
<!--Text Start-->
<p><h2>
General
Format : Matroska
Format version : Version 4 / Version 2
File size : 233 MiB
Duration : 22 min 24 s
Overall bit rate : 1 451 kb/s
Encoded date : UTC 2018-07-22 08:19:13
Writing application : mkvmerge v24.0.0 ('Beyond The Pale') 64-bit
Writing library : libebml v1.3.6 + libmatroska v1.4.9
Writing frontend : StaxRip v1.8.2.0

Video
ID : 1
Format : HEVC
Format/Info : High Efficiency Video Coding
Format profile : Main 10@L4@Main
Codec ID : V_MPEGH/ISO/HEVC
Duration : 22 min 24 s
Bit rate : 1 265 kb/s
Width : 1 920 pixels
Height : 1 080 pixels
Display aspect ratio : 16:9
Frame rate mode : Constant
Frame rate : 23.976 (24000/1001) FPS
Color space : YUV
Chroma subsampling : 4:2:0
Bit depth : 10 bits
Bits/(Pixel*Frame) : 0.025
Stream size : 203 MiB (87%)
Writing library : x265 2.8+19-bcdc610cf5f0:[Windows][MSVC 1914][64 bit] 10bit
Encoding settings : cpuid=1111039 / frame-threads=3 / numa-pools=8 / wpp / no-pmode / no-pme / no-psnr / ssim / log-level=2 / input-csp=1 / input-res=1920x1080 / interlace=0 / total-frames=32226 / level-idc=0 / high-tier=1 / uhd-bd=0 / ref=4 / no-allow-non-conformance / no-repeat-headers / annexb / no-aud / no-hrd / info / hash=0 / no-temporal-layers / open-gop / min-keyint=23 / keyint=250 / gop-lookahead=0 / bframes=4 / b-adapt=2 / b-pyramid / bframe-bias=0 / rc-lookahead=25 / lookahead-slices=4 / scenecut=40 / radl=0 / no-intra-refresh / ctu=64 / min-cu-size=8 / rect / no-amp / max-tu-size=32 / tu-inter-depth=1 / tu-intra-depth=1 / limit-tu=0 / rdoq-level=2 / dynamic-rd=0.00 / ssim-rd / signhide / no-tskip / nr-intra=0 / nr-inter=0 / no-constrained-intra / strong-intra-smoothing / max-merge=3 / limit-refs=3 / limit-modes / me=3 / subme=3 / merange=57 / temporal-mvp / weightp / no-weightb / no-analyze-src-pics / deblock=0:0 / sao / no-sao-non-deblock / rd=4 / early-skip / rskip / no-fast-intra / no-tskip-fast / no-cu-lossless / no-b-intra / no-splitrd-skip / rdpenalty=0 / psy-rd=1.20 / psy-rdoq=0.80 / no-rd-refine / no-lossless / cbqpoffs=0 / crqpoffs=0 / rc=crf / crf=21.5 / qcomp=0.60 / qpstep=4 / stats-write=0 / stats-read=0 / ipratio=1.40 / pbratio=1.30 / aq-mode=1 / aq-strength=1.00 / cutree / zone-count=0 / no-strict-cbr / qg-size=32 / no-rc-grain / qpmax=69 / qpmin=0 / no-const-vbv / sar=0 / overscan=0 / videoformat=5 / range=0 / colorprim=2 / transfer=2 / colormatrix=2 / chromaloc=0 / display-window=0 / max-cll=0,0 / min-luma=0 / max-luma=1023 / log2-max-poc-lsb=8 / vui-timing-info / vui-hrd-info / slices=1 / no-opt-qp-pps / no-opt-ref-list-length-pps / no-multi-pass-opt-rps / scenecut-bias=0.05 / no-opt-cu-delta-qp / no-aq-motion / no-hdr / no-hdr-opt / no-dhdr10-opt / no-idr-recovery-sei / analysis-reuse-level=5 / scale-factor=0 / refine-intra=0 / refine-inter=0 / refine-mv=0 / no-limit-sao / ctu-info=0 / no-lowpass-dct / refine-mv-type=0 / copy-pic=1 / max-ausize-factor=1.0 / no-dynamic-refine / no-single-sei
Default : Yes
Forced : No

Audio
ID : 2
Format : AAC
Format/Info : Advanced Audio Codec
Format profile : HE-AAC / LC
Codec ID : A_AAC
Duration : 22 min 23 s
Bit rate : 184 kb/s
Channel(s) : 6 channels
Channel positions : Front: L C R, Side: L R, LFE
Sampling rate : 48.0 kHz / 24.0 kHz
Frame rate : 23.438 FPS (1024 spf)
Compression mode : Lossy
Delay relative to video : 31 ms
Stream size : 29.4 MiB (13%)
Language : English
Default : No
Forced : No

Subtitle #1
ID : 3
Format : UTF-8
Codec ID : S_TEXT/UTF8
Codec ID/Info : UTF-8 Plain Text
Duration : 21 min 3 s
Bit rate : 121 b/s
Count of elements : 535
Stream size : 18.8 KiB (0%)
Language : English
Default : No
Forced : No

Subtitle #2
ID : 4
Format : UTF-8
Codec ID : S_TEXT/UTF8
Codec ID/Info : UTF-8 Plain Text
Duration : 21 min 23 s
Bit rate : 125 b/s
Count of elements : 562
Stream size : 19.6 KiB (0%)
Language : English
Default : No
Forced : No

Subtitle #3
ID : 5
Format : UTF-8
Codec ID : S_TEXT/UTF8
Codec ID/Info : UTF-8 Plain Text
Duration : 21 min 3 s
Bit rate : 121 b/s
Count of elements : 535
Stream size : 18.8 KiB (0%)
Language : English
Default : No
Forced : No

Subtitle #4
ID : 6
Format : UTF-8
Codec ID : S_TEXT/UTF8
Codec ID/Info : UTF-8 Plain Text
Duration : 21 min 23 s
Bit rate : 125 b/s
Count of elements : 562
Stream size : 19.6 KiB (0%)
Language : English
Default : No
Forced : No

Menu
00:00:00.000 : en:00:00:00.000
00:00:33.659 : en:00:00:33.659
00:10:29.212 : en:00:10:29.212
00:16:16.184 : en:00:16:16.184
00:21:50.434 : en:00:21:50.434 
</h2></p>
<!--Text End-->
</body>
</html>